# xmcd
#
# Track frame offsets: 
#        150
#        15042
#        32957
#        54286
#        72334
#        91147
#        107738
#        132226
#        145753
#        164960
#        180935
#        195539
#        210168
#        224991
#        239820
#
# Disc length: 3419 seconds
#
# Revision: 0
# Processed by: cddbd v1.5.2PL0 Copyright (c) Steve Scherf et al.
# Submitted via: ExactAudioCopy v1.0b3
#
DISCID=d60d590f
DTITLE=Fathead - Fatter Than Ever
DYEAR=2014
DGENRE=Blues
TTITLE0=I Don't Want To Leave The Party
TTITLE1=Johnny Says
TTITLE2=Take A Little Time For Yourself
TTITLE3=Evil Eye
TTITLE4=Twenty Second Chances
TTITLE5=When Did You Ever?
TTITLE6=Slippery Slope
TTITLE7=Life Goes On
TTITLE8=My Brother
TTITLE9=Better Off Taking Chances
TTITLE10=Shoot That Rooster
TTITLE11=Pinching Pennies
TTITLE12=Preacher Man
TTITLE13=Throw Me A Bone
TTITLE14=Cost To Boogie
EXTD=
EXTT0=
EXTT1=
EXTT2=
EXTT3=
EXTT4=
EXTT5=
EXTT6=
EXTT7=
EXTT8=
EXTT9=
EXTT10=
EXTT11=
EXTT12=
EXTT13=
EXTT14=
PLAYORDER=
